<svg width="435" height="330" xmlns="http://www.w3.org/2000/svg" xmlns:xlink="http://www.w3.org/1999/xlink" xml:space="preserve" overflow="hidden"><defs><clipPath id="clip0"><rect x="4361" y="131" width="435" height="330"/></clipPath><clipPath id="clip1"><rect x="4361" y="130" width="331" height="331"/></clipPath><clipPath id="clip2"><rect x="4361" y="130" width="331" height="331"/></clipPath><clipPath id="clip3"><rect x="4361" y="130" width="331" height="331"/></clipPath></defs><g clip-path="url(#clip0)" transform="translate(-4361 -131)"><g clip-path="url(#clip1)"><g clip-path="url(#clip2)"><g clip-path="url(#clip3)"><path d="M4460.69 220.375C4466.53 220.375 4471 215.906 4471 210.062L4471 189.437C4471 183.594 4466.53 179.125 4460.69 179.125 4454.84 179.125 4450.38 183.594 4450.38 189.437L4450.38 210.062C4450.38 215.906 4454.84 220.375 4460.69 220.375Z" fill="#FF7575"/><path d="M4429.75 364.75 4484.75 364.75 4484.75 392.25 4429.75 392.25 4429.75 364.75ZM4429.75 323.5 4484.75 323.5 4484.75 351 4429.75 351 4429.75 323.5ZM4429.75 282.25 4484.75 282.25 4484.75 309.75 4429.75 309.75 4429.75 282.25ZM4553.5 282.25 4553.5 309.75 4498.5 309.75 4498.5 282.25 4553.5 282.25ZM4622.25 282.25 4622.25 309.75 4567.25 309.75 4567.25 282.25 4622.25 282.25ZM4622.25 351 4567.25 351 4567.25 323.5 4622.25 323.5 4622.25 351ZM4622.25 392.25 4567.25 392.25 4567.25 364.75 4622.25 364.75 4622.25 392.25ZM4498.5 351 4498.5 323.5 4553.5 323.5 4553.5 351 4498.5 351ZM4498.5 392.25 4498.5 364.75 4553.5 364.75 4553.5 392.25 4498.5 392.25ZM4409.12 412.875 4642.88 412.875 4642.88 261.625 4409.12 261.625 4409.12 412.875Z" fill="#FF7575"/><path d="M4591.31 220.375C4597.16 220.375 4601.62 215.906 4601.62 210.062L4601.62 189.437C4601.62 183.594 4597.16 179.125 4591.31 179.125 4585.47 179.125 4581 183.594 4581 189.437L4581 210.062C4581 215.906 4585.47 220.375 4591.31 220.375Z" fill="#FF7575"/><path d="M4615.38 199.75 4615.38 210.062C4615.38 223.469 4604.72 234.125 4591.31 234.125 4577.91 234.125 4567.25 223.469 4567.25 210.062L4567.25 199.75 4484.75 199.75 4484.75 210.062C4484.75 223.469 4474.09 234.125 4460.69 234.125 4447.28 234.125 4436.62 223.469 4436.62 210.062L4436.62 199.75 4409.12 199.75 4409.12 247.875 4642.88 247.875 4642.88 199.75 4615.38 199.75Z" fill="#FF7575"/></g></g></g><path d="M4668.8 277.626 4712.13 277.626 4712.13 235.401 4751.87 235.401 4751.87 277.626 4795.2 277.626 4795.2 317.374 4751.87 317.374 4751.87 359.599 4712.13 359.599 4712.13 317.374 4668.8 317.374Z" fill="#FF7575" fill-rule="evenodd"/></g></svg>