<svg width="471" height="406" xmlns="http://www.w3.org/2000/svg" xmlns:xlink="http://www.w3.org/1999/xlink" xml:space="preserve" overflow="hidden"><defs><clipPath id="clip0"><rect x="2494" y="772" width="471" height="406"/></clipPath><clipPath id="clip1"><rect x="2493" y="808" width="331" height="331"/></clipPath><clipPath id="clip2"><rect x="2493" y="808" width="331" height="331"/></clipPath><clipPath id="clip3"><rect x="2493" y="808" width="331" height="331"/></clipPath></defs><g clip-path="url(#clip0)" transform="translate(-2494 -772)"><path d="M2511.5 847.334C2511.5 812.079 2540.08 783.5 2575.33 783.5L2889.67 783.5C2924.92 783.5 2953.5 812.079 2953.5 847.334L2953.5 1102.67C2953.5 1137.92 2924.92 1166.5 2889.67 1166.5L2575.33 1166.5C2540.08 1166.5 2511.5 1137.92 2511.5 1102.67Z" stroke="#7030A0" stroke-width="22.9167" stroke-miterlimit="8" fill="#FFFFFF" fill-rule="evenodd"/><g clip-path="url(#clip1)"><g clip-path="url(#clip2)"><g clip-path="url(#clip3)"><path d="M2593.69 897.375C2599.53 897.375 2604 892.906 2604 887.063L2604 866.438C2604 860.594 2599.53 856.125 2593.69 856.125 2587.84 856.125 2583.38 860.594 2583.38 866.438L2583.38 887.063C2583.38 892.906 2587.84 897.375 2593.69 897.375Z" fill="#7030A0"/><path d="M2562.75 1041.75 2617.75 1041.75 2617.75 1069.25 2562.75 1069.25 2562.75 1041.75ZM2562.75 1000.5 2617.75 1000.5 2617.75 1028 2562.75 1028 2562.75 1000.5ZM2562.75 959.25 2617.75 959.25 2617.75 986.75 2562.75 986.75 2562.75 959.25ZM2686.5 959.25 2686.5 986.75 2631.5 986.75 2631.5 959.25 2686.5 959.25ZM2755.25 959.25 2755.25 986.75 2700.25 986.75 2700.25 959.25 2755.25 959.25ZM2755.25 1028 2700.25 1028 2700.25 1000.5 2755.25 1000.5 2755.25 1028ZM2755.25 1069.25 2700.25 1069.25 2700.25 1041.75 2755.25 1041.75 2755.25 1069.25ZM2631.5 1028 2631.5 1000.5 2686.5 1000.5 2686.5 1028 2631.5 1028ZM2631.5 1069.25 2631.5 1041.75 2686.5 1041.75 2686.5 1069.25 2631.5 1069.25ZM2542.12 1089.88 2775.88 1089.88 2775.88 938.625 2542.12 938.625 2542.12 1089.88Z" fill="#7030A0"/><path d="M2724.31 897.375C2730.16 897.375 2734.62 892.906 2734.62 887.063L2734.62 866.438C2734.62 860.594 2730.16 856.125 2724.31 856.125 2718.47 856.125 2714 860.594 2714 866.438L2714 887.063C2714 892.906 2718.47 897.375 2724.31 897.375Z" fill="#7030A0"/><path d="M2748.38 876.75 2748.38 887.063C2748.38 900.469 2737.72 911.125 2724.31 911.125 2710.91 911.125 2700.25 900.469 2700.25 887.063L2700.25 876.75 2617.75 876.75 2617.75 887.063C2617.75 900.469 2607.09 911.125 2593.69 911.125 2580.28 911.125 2569.62 900.469 2569.62 887.063L2569.62 876.75 2542.12 876.75 2542.12 924.875 2775.88 924.875 2775.88 876.75 2748.38 876.75Z" fill="#7030A0"/></g></g></g><path d="M2802.8 954.626 2846.13 954.626 2846.13 912.401 2885.87 912.401 2885.87 954.626 2929.2 954.626 2929.2 994.374 2885.87 994.374 2885.87 1036.6 2846.13 1036.6 2846.13 994.374 2802.8 994.374Z" fill="#7030A0" fill-rule="evenodd"/></g></svg>