<svg width="465" height="421" xmlns="http://www.w3.org/2000/svg" xmlns:xlink="http://www.w3.org/1999/xlink" xml:space="preserve" overflow="hidden"><defs><clipPath id="clip0"><rect x="2248" y="1721" width="465" height="421"/></clipPath><clipPath id="clip1"><rect x="2319" y="1721" width="325" height="323"/></clipPath><clipPath id="clip2"><rect x="2319" y="1721" width="325" height="323"/></clipPath><clipPath id="clip3"><rect x="2319" y="1721" width="325" height="323"/></clipPath></defs><g clip-path="url(#clip0)" transform="translate(-2248 -1721)"><path d="M2259.5 1812.17C2259.5 1777.01 2288.01 1748.5 2323.17 1748.5L2637.83 1748.5C2672.99 1748.5 2701.5 1777.01 2701.5 1812.17L2701.5 2066.83C2701.5 2101.99 2672.99 2130.5 2637.83 2130.5L2323.17 2130.5C2288.01 2130.5 2259.5 2101.99 2259.5 2066.83Z" stroke="#7030A0" stroke-width="22.9167" stroke-miterlimit="8" fill="#FFFFFF" fill-rule="evenodd"/><g clip-path="url(#clip1)"><g clip-path="url(#clip2)"><g clip-path="url(#clip3)"><path d="M97.5728 87.4791C103.293 87.4791 107.667 83.1051 107.667 77.3854L107.667 57.1979C107.667 51.4781 103.293 47.1041 97.5728 47.1041 91.8531 47.1041 87.4791 51.4781 87.4791 57.1979L87.4791 77.3854C87.4791 83.1051 91.8531 87.4791 97.5728 87.4791Z" fill="#7030A0" transform="matrix(1 0 0 1 2320 1721)"/><path d="M67.2916 228.792 121.125 228.792 121.125 255.708 67.2916 255.708 67.2916 228.792ZM67.2916 188.417 121.125 188.417 121.125 215.333 67.2916 215.333 67.2916 188.417ZM67.2916 148.042 121.125 148.042 121.125 174.958 67.2916 174.958 67.2916 148.042ZM188.417 148.042 188.417 174.958 134.583 174.958 134.583 148.042 188.417 148.042ZM255.708 148.042 255.708 174.958 201.875 174.958 201.875 148.042 255.708 148.042ZM255.708 215.333 201.875 215.333 201.875 188.417 255.708 188.417 255.708 215.333ZM255.708 255.708 201.875 255.708 201.875 228.792 255.708 228.792 255.708 255.708ZM134.583 215.333 134.583 188.417 188.417 188.417 188.417 215.333 134.583 215.333ZM134.583 255.708 134.583 228.792 188.417 228.792 188.417 255.708 134.583 255.708ZM47.1041 275.896 275.896 275.896 275.896 127.854 47.1041 127.854 47.1041 275.896Z" fill="#7030A0" transform="matrix(1 0 0 1 2320 1721)"/><path d="M225.427 87.4791C231.147 87.4791 235.521 83.1051 235.521 77.3854L235.521 57.1979C235.521 51.4781 231.147 47.1041 225.427 47.1041 219.707 47.1041 215.333 51.4781 215.333 57.1979L215.333 77.3854C215.333 83.1051 219.707 87.4791 225.427 87.4791Z" fill="#7030A0" transform="matrix(1 0 0 1 2320 1721)"/><path d="M248.979 67.2916 248.979 77.3854C248.979 90.5072 238.549 100.937 225.427 100.937 212.305 100.937 201.875 90.5072 201.875 77.3854L201.875 67.2916 121.125 67.2916 121.125 77.3854C121.125 90.5072 110.695 100.937 97.5728 100.937 84.451 100.937 74.0208 90.5072 74.0208 77.3854L74.0208 67.2916 47.1041 67.2916 47.1041 114.396 275.896 114.396 275.896 67.2916 248.979 67.2916Z" fill="#7030A0" transform="matrix(1 0 0 1 2320 1721)"/></g></g></g><path d="M2447.05 2044.77 2473.77 2044.77 2473.77 2018.79 2498.23 2018.79 2498.23 2044.77 2524.95 2044.77 2524.95 2069.23 2498.23 2069.23 2498.23 2095.21 2473.77 2095.21 2473.77 2069.23 2447.05 2069.23Z" fill="#7030A0" fill-rule="evenodd"/></g></svg>