<svg width="464" height="437" xmlns="http://www.w3.org/2000/svg" xmlns:xlink="http://www.w3.org/1999/xlink" xml:space="preserve" overflow="hidden"><defs><clipPath id="clip0"><rect x="4212" y="1542" width="464" height="437"/></clipPath><clipPath id="clip1"><rect x="4301" y="1648" width="330" height="331"/></clipPath><clipPath id="clip2"><rect x="4301" y="1648" width="330" height="331"/></clipPath><clipPath id="clip3"><rect x="4301" y="1648" width="330" height="331"/></clipPath><clipPath id="clip4"><rect x="4361" y="1575" width="188" height="188"/></clipPath><clipPath id="clip5"><rect x="4361" y="1575" width="188" height="188"/></clipPath><clipPath id="clip6"><rect x="4361" y="1575" width="188" height="188"/></clipPath></defs><g clip-path="url(#clip0)" transform="translate(-4212 -1542)"><path d="M4223.5 1617.33C4223.5 1582.08 4252.08 1553.5 4287.33 1553.5L4600.67 1553.5C4635.92 1553.5 4664.5 1582.08 4664.5 1617.33L4664.5 1872.67C4664.5 1907.92 4635.92 1936.5 4600.67 1936.5L4287.33 1936.5C4252.08 1936.5 4223.5 1907.92 4223.5 1872.67Z" stroke="#7030A0" stroke-width="22.9167" stroke-miterlimit="8" fill="#FFFFFF" fill-rule="evenodd"/><g clip-path="url(#clip1)"><g clip-path="url(#clip2)"><g clip-path="url(#clip3)"><path d="M4603.5 1767.59C4603.5 1791.32 4584.26 1810.56 4560.53 1810.56 4536.8 1810.56 4517.56 1791.32 4517.56 1767.59 4517.56 1743.86 4536.8 1724.62 4560.53 1724.62 4584.26 1724.62 4603.5 1743.86 4603.5 1767.59Z" fill="#7030A0"/><path d="M4362.88 1851.81C4362.88 1857.31 4364.94 1862.12 4368.38 1865.91 4360.12 1861.78 4356 1854.56 4356 1841.5 4356 1816.06 4379.38 1812.62 4411 1810.56L4411 1858 4404.12 1844.94C4399.66 1836 4393.12 1831.19 4383.5 1831.19 4372.16 1831.19 4362.88 1840.47 4362.88 1851.81ZM4331.94 1893.06C4331.94 1900.62 4338.12 1906.81 4345.69 1906.81L4414.44 1906.81C4419.59 1906.81 4424.75 1903.72 4426.81 1898.91 4429.22 1894.09 4427.84 1888.59 4425.09 1884.47L4420.28 1875.88 4417.53 1870.72 4501.06 1847.69 4504.16 1864.53C4504.5 1867.28 4505.88 1870.03 4507.94 1871.75L4538.88 1902.69C4541.62 1905.44 4545.06 1906.81 4548.5 1906.81 4551.94 1906.81 4555.38 1905.44 4558.12 1902.69 4563.62 1897.19 4563.62 1888.59 4558.12 1883.09L4530.28 1855.25 4520.66 1800.94C4519.62 1794.41 4513.78 1789.59 4507.25 1789.59L4411 1796.47C4384.19 1798.19 4342.25 1800.94 4342.25 1841.16 4342.25 1862.81 4351.88 1873.47 4365.28 1878.97L4345.69 1878.97C4338.12 1879.31 4331.94 1885.5 4331.94 1893.06Z" fill="#7030A0"/></g></g></g><g clip-path="url(#clip4)"><g clip-path="url(#clip5)"><g clip-path="url(#clip6)"><path d="M4532.42 1656.81 4466.19 1656.81 4466.19 1590.58 4442.81 1590.58 4442.81 1656.81 4376.58 1656.81 4376.58 1680.19 4442.81 1680.19 4442.81 1746.42 4466.19 1746.42 4466.19 1680.19 4532.42 1680.19Z" fill="#7030A0"/></g></g></g></g></svg>