<svg width="465" height="410" xmlns="http://www.w3.org/2000/svg" xmlns:xlink="http://www.w3.org/1999/xlink" xml:space="preserve" overflow="hidden"><defs><clipPath id="clip0"><rect x="417" y="1307" width="465" height="410"/></clipPath></defs><g clip-path="url(#clip0)" transform="translate(-417 -1307)"><path d="M428.5 1382.33C428.5 1347.08 457.08 1318.5 492.335 1318.5L806.665 1318.5C841.92 1318.5 870.5 1347.08 870.5 1382.33L870.5 1637.67C870.5 1672.92 841.92 1701.5 806.665 1701.5L492.335 1701.5C457.08 1701.5 428.5 1672.92 428.5 1637.67Z" stroke="#D60093" stroke-width="22.9167" stroke-miterlimit="8" fill="#FFFFFF" fill-rule="evenodd"/><path d="M652 1553.11C617.625 1553.11 590.125 1525.71 590.125 1491.47 590.125 1457.23 617.625 1429.83 652 1429.83 686.375 1429.83 713.875 1457.23 713.875 1491.47 713.875 1525.71 686.375 1553.11 652 1553.11ZM583.25 1443.53 542 1443.53 542 1416.14 583.25 1416.14 583.25 1443.53ZM775.75 1388.74 707 1388.74 686.375 1354.5 617.625 1354.5 597 1388.74 528.25 1388.74C520.688 1388.74 514.5 1394.91 514.5 1402.44L514.5 1566.8C514.5 1574.34 520.688 1580.5 528.25 1580.5L775.75 1580.5C783.313 1580.5 789.5 1574.34 789.5 1566.8L789.5 1402.44C789.5 1394.91 783.313 1388.74 775.75 1388.74Z" stroke="#D60093" stroke-width="3.4375" stroke-miterlimit="8" fill="#D60093" fill-rule="evenodd"/><path d="M652.5 1457.21C633.3 1457.21 618.214 1472.3 618.214 1491.5 618.214 1510.7 633.3 1525.79 652.5 1525.79 671.7 1525.79 686.786 1510.7 686.786 1491.5 686.786 1472.3 671.7 1457.21 652.5 1457.21ZM652.5 1539.5C625.757 1539.5 604.5 1518.24 604.5 1491.5 604.5 1464.76 625.757 1443.5 652.5 1443.5 679.243 1443.5 700.5 1464.76 700.5 1491.5 700.5 1518.24 679.243 1539.5 652.5 1539.5Z" stroke="#D60093" stroke-width="3.4375" stroke-miterlimit="8" fill="#D60093" fill-rule="evenodd"/><text fill="#D60093" font-family="Arial,Arial_MSFontService,sans-serif" font-weight="700" font-size="73" transform="matrix(1 0 0 1 577.025 1656)">DOC</text></g></svg>