<svg width="476" height="406" xmlns="http://www.w3.org/2000/svg" xmlns:xlink="http://www.w3.org/1999/xlink" xml:space="preserve" overflow="hidden"><defs><clipPath id="clip0"><rect x="952" y="1545" width="476" height="406"/></clipPath></defs><g clip-path="url(#clip0)" transform="translate(-952 -1545)"><path d="M963.5 1620.33C963.5 1585.08 992.08 1556.5 1027.33 1556.5L1341.67 1556.5C1376.92 1556.5 1405.5 1585.08 1405.5 1620.33L1405.5 1875.67C1405.5 1910.92 1376.92 1939.5 1341.67 1939.5L1027.33 1939.5C992.08 1939.5 963.5 1910.92 963.5 1875.67Z" stroke="#D60093" stroke-width="22.9167" stroke-miterlimit="8" fill="#FFFFFF" fill-rule="evenodd"/><path d="M1129 1827.98C1094.62 1827.98 1067.12 1800.47 1067.12 1766.08 1067.12 1731.68 1094.62 1704.17 1129 1704.17 1163.37 1704.17 1190.87 1731.68 1190.87 1766.08 1190.87 1800.47 1163.37 1827.98 1129 1827.98ZM1060.25 1717.92 1019 1717.92 1019 1690.41 1060.25 1690.41 1060.25 1717.92ZM1252.75 1662.89 1184 1662.89 1163.37 1628.5 1094.62 1628.5 1074 1662.89 1005.25 1662.89C997.687 1662.89 991.5 1669.08 991.5 1676.65L991.5 1841.74C991.5 1849.31 997.687 1855.5 1005.25 1855.5L1252.75 1855.5C1260.31 1855.5 1266.5 1849.31 1266.5 1841.74L1266.5 1676.65C1266.5 1669.08 1260.31 1662.89 1252.75 1662.89Z" stroke="#D60093" stroke-width="3.4375" stroke-miterlimit="8" fill="#D60093" fill-rule="evenodd"/><path d="M1128.5 1732.21C1109.3 1732.21 1094.21 1747.3 1094.21 1766.5 1094.21 1785.7 1109.3 1800.79 1128.5 1800.79 1147.7 1800.79 1162.79 1785.7 1162.79 1766.5 1162.79 1747.3 1147.7 1732.21 1128.5 1732.21ZM1128.5 1814.5C1101.76 1814.5 1080.5 1793.24 1080.5 1766.5 1080.5 1739.76 1101.76 1718.5 1128.5 1718.5 1155.24 1718.5 1176.5 1739.76 1176.5 1766.5 1176.5 1793.24 1155.24 1814.5 1128.5 1814.5Z" stroke="#D60093" stroke-width="3.4375" stroke-miterlimit="8" fill="#D60093" fill-rule="evenodd"/><text fill="#D60093" font-family="Arial,Arial_MSFontService,sans-serif" font-weight="700" font-size="73" transform="matrix(1 0 0 1 1291.22 1660)">D<tspan font-size="73" x="-3" y="95">O</tspan><tspan font-size="73" x="0" y="191">C</tspan></text></g></svg>