<svg width="96" height="96" xmlns="http://www.w3.org/2000/svg" xmlns:xlink="http://www.w3.org/1999/xlink" xml:space="preserve" overflow="hidden"><defs><clipPath id="clip0"><rect x="890" y="156" width="96" height="96"/></clipPath></defs><g clip-path="url(#clip0)" transform="translate(-890 -156)"><path d="M932 163 944 163 944 207 932 207Z" fill="#2F5597"/><path d="M959.8 175.9 952.9 185.7C959.6 190.4 964 198.2 964 207 964 221.3 952.3 233 938 233 923.7 233 912 221.3 912 207 912 198.2 916.4 190.4 923.1 185.7L916.2 175.9C906.4 182.7 900 194.1 900 207 900 228 917 245 938 245 959 245 976 228 976 207 976 194.1 969.6 182.7 959.8 175.9Z" fill="#2F5597"/></g></svg>