<svg width="119" height="120" xmlns="http://www.w3.org/2000/svg" xmlns:xlink="http://www.w3.org/1999/xlink" xml:space="preserve" overflow="hidden"><defs><clipPath id="clip0"><rect x="676" y="125" width="119" height="120"/></clipPath></defs><g clip-path="url(#clip0)" transform="translate(-676 -125)"><path d="M39.5241 40.672 92.2932 40.672 92.2932 34.9153C92.2932 32.5877 90.4063 30.7008 88.0786 30.7008L56.4965 30.7008 44.9151 23.0153C44.2225 22.567 43.4226 22.3123 42.5983 22.2778L22.8083 22.2778C20.4806 22.2778 18.5938 24.1647 18.5938 26.4924L18.5938 79.0433 18.6359 79.0433 32.5812 45.1642C33.8271 42.4459 36.534 40.6945 39.5241 40.672Z" stroke="#FFFFFF" stroke-width="1.33333" fill="#2F5597" transform="matrix(1 0 0 1.0084 676 125)"/><path d="M70.6054 63.1531C77.3292 56.4327 87.7217 55.05 95.9685 59.7789L100.295 50.482C100.578 49.8941 100.722 49.249 100.716 48.5966 100.728 46.4322 99.0989 44.6105 96.9466 44.382L39.5427 44.382C38.0008 44.3925 36.6046 45.2955 35.9628 46.6976L21.7522 81.2398 64.6939 81.2398C63.6737 74.6136 65.8687 67.8976 70.6054 63.1531Z" stroke="#FFFFFF" stroke-width="1.33333" fill="#2F5597" transform="matrix(1 0 0 1.0084 676 125)"/><path d="M78.4941 71.0418C75.8266 73.7124 74.9081 77.6667 76.1253 81.2398L85.9763 81.2398 91.2271 69.9596C87.286 67.172 81.9103 67.6273 78.4941 71.038Z" stroke="#FFFFFF" stroke-width="1.33333" fill="#2F5597" transform="matrix(1 0 0 1.0084 676 125)"/><path d="M97.7771 65.7822C91.0077 59.0031 80.0243 58.995 73.2451 65.7645 67.04 71.9605 66.4349 81.813 71.8351 88.7219L69.1167 91.4403C67.6266 91.0367 66.0345 91.4593 64.9405 92.5485L57.0518 100.437C55.3574 102.132 55.3574 104.879 57.0518 106.573 58.7462 108.268 61.4934 108.268 63.1878 106.573L71.0765 98.6845C72.1657 97.5905 72.5883 95.9984 72.1847 94.5083L74.9117 91.7812C82.4861 97.6462 93.3809 96.2605 99.2459 88.6861 104.599 81.7726 103.97 71.9553 97.7771 65.7822ZM95.1479 87.6956C89.8231 93.0207 81.1896 93.0208 75.8646 87.6961 70.5395 82.3712 70.5392 73.7377 75.8641 68.4126 81.189 63.0875 89.8224 63.0874 95.1476 68.4122 95.1477 68.4124 95.1478 68.4125 95.1479 68.4126 100.464 73.741 100.464 82.3672 95.1479 87.6956Z" stroke="#FFFFFF" stroke-width="1.33333" fill="#2F5597" transform="matrix(1 0 0 1.0084 676 125)"/></g></svg>