<svg width="96" height="96" xmlns="http://www.w3.org/2000/svg" xmlns:xlink="http://www.w3.org/1999/xlink" xml:space="preserve" overflow="hidden"><defs><clipPath id="clip0"><rect x="981" y="141" width="96" height="96"/></clipPath></defs><g clip-path="url(#clip0)" transform="translate(-981 -141)"><path d="M1053 175.8 1053 159 1045 159 1045 168.2 1029 153 1029 153 987 193 991.5 196.8 1029 161.2 1029 161.2 1066.5 196.8 1071 193Z" fill="#2F5597"/><path d="M999 195.3 999 225 1023 225 1023 200 1035 200 1035 225 1059 225 1059 195.3 1029 166.8 999 195.3ZM1017 212 1005 212 1005 200 1017 200 1017 212ZM1041 200 1053 200 1053 212 1041 212 1041 200Z" fill="#2F5597"/></g></svg>