<svg width="465" height="406" xmlns="http://www.w3.org/2000/svg" xmlns:xlink="http://www.w3.org/1999/xlink" xml:space="preserve" overflow="hidden"><defs><clipPath id="clip0"><rect x="3296" y="470" width="465" height="406"/></clipPath><clipPath id="clip1"><rect x="3473" y="621" width="141" height="142"/></clipPath><clipPath id="clip2"><rect x="3473" y="621" width="141" height="142"/></clipPath><clipPath id="clip3"><rect x="3473" y="621" width="141" height="142"/></clipPath><clipPath id="clip4"><rect x="3362" y="492" width="331" height="331"/></clipPath><clipPath id="clip5"><rect x="3362" y="492" width="331" height="331"/></clipPath><clipPath id="clip6"><rect x="3362" y="492" width="331" height="331"/></clipPath></defs><g clip-path="url(#clip0)" transform="translate(-3296 -470)"><path d="M3307.5 545.334C3307.5 510.08 3336.08 481.5 3371.33 481.5L3685.67 481.5C3720.92 481.5 3749.5 510.08 3749.5 545.334L3749.5 800.666C3749.5 835.92 3720.92 864.5 3685.67 864.5L3371.33 864.5C3336.08 864.5 3307.5 835.92 3307.5 800.666Z" stroke="#009AA6" stroke-width="22.9167" stroke-miterlimit="8" fill="#FFFFFF" fill-rule="evenodd"/><g clip-path="url(#clip1)"><g clip-path="url(#clip2)"><g clip-path="url(#clip3)"><path d="M127.417 60.8126 78.1876 60.8126 78.1876 11.5834 60.8126 11.5834 60.8126 60.8126 11.5834 60.8126 11.5834 78.1876 60.8126 78.1876 60.8126 127.417 78.1876 127.417 78.1876 78.1876 127.417 78.1876Z" fill="#FFFFFF" transform="matrix(1 0 0 1.00719 3474 622)"/></g></g></g><g clip-path="url(#clip4)"><g clip-path="url(#clip5)"><g clip-path="url(#clip6)"><path d="M3610.5 612.625 3610.5 554.875 3583 554.875 3583 586.5 3528 534.25 3528 534.25 3383.62 671.75 3399.09 684.812 3528 562.437 3528 562.437 3656.91 684.812 3672.38 671.75Z" fill="#009AA6"/><path d="M3424.88 679.656 3424.88 781.75 3507.38 781.75 3507.38 695.812 3548.62 695.812 3548.62 781.75 3631.12 781.75 3631.12 679.656 3528 581.687 3424.88 679.656ZM3486.75 737.062 3445.5 737.062 3445.5 695.812 3486.75 695.812 3486.75 737.062ZM3569.25 695.812 3610.5 695.812 3610.5 737.062 3569.25 737.062 3569.25 695.812Z" fill="#009AA6"/></g></g></g></g></svg>