<svg width="465" height="438" xmlns="http://www.w3.org/2000/svg" xmlns:xlink="http://www.w3.org/1999/xlink" xml:space="preserve" overflow="hidden"><defs><clipPath id="clip0"><rect x="4294" y="792" width="465" height="438"/></clipPath><clipPath id="clip1"><rect x="4383" y="899" width="331" height="331"/></clipPath><clipPath id="clip2"><rect x="4383" y="899" width="331" height="331"/></clipPath><clipPath id="clip3"><rect x="4383" y="899" width="331" height="331"/></clipPath></defs><g clip-path="url(#clip0)" transform="translate(-4294 -792)"><path d="M4305.5 867.335C4305.5 832.08 4334.08 803.5 4369.33 803.5L4683.67 803.5C4718.92 803.5 4747.5 832.08 4747.5 867.335L4747.5 1122.67C4747.5 1157.92 4718.92 1186.5 4683.67 1186.5L4369.33 1186.5C4334.08 1186.5 4305.5 1157.92 4305.5 1122.67Z" stroke="#009AA6" stroke-width="22.9167" stroke-miterlimit="8" fill="#FFFFFF" fill-rule="evenodd"/><g clip-path="url(#clip1)"><g clip-path="url(#clip2)"><g clip-path="url(#clip3)"><path d="M4685.5 1018.59C4685.5 1042.32 4666.26 1061.56 4642.53 1061.56 4618.8 1061.56 4599.56 1042.32 4599.56 1018.59 4599.56 994.863 4618.8 975.625 4642.53 975.625 4666.26 975.625 4685.5 994.863 4685.5 1018.59Z" fill="#009AA6"/><path d="M4444.88 1102.81C4444.88 1108.31 4446.94 1113.12 4450.38 1116.91 4442.12 1112.78 4438 1105.56 4438 1092.5 4438 1067.06 4461.38 1063.62 4493 1061.56L4493 1109 4486.12 1095.94C4481.66 1087 4475.12 1082.19 4465.5 1082.19 4454.16 1082.19 4444.88 1091.47 4444.88 1102.81ZM4413.94 1144.06C4413.94 1151.62 4420.12 1157.81 4427.69 1157.81L4496.44 1157.81C4501.59 1157.81 4506.75 1154.72 4508.81 1149.91 4511.22 1145.09 4509.84 1139.59 4507.09 1135.47L4502.28 1126.88 4499.53 1121.72 4583.06 1098.69 4586.16 1115.53C4586.5 1118.28 4587.88 1121.03 4589.94 1122.75L4620.88 1153.69C4623.62 1156.44 4627.06 1157.81 4630.5 1157.81 4633.94 1157.81 4637.38 1156.44 4640.12 1153.69 4645.62 1148.19 4645.62 1139.59 4640.12 1134.09L4612.28 1106.25 4602.66 1051.94C4601.62 1045.41 4595.78 1040.59 4589.25 1040.59L4493 1047.47C4466.19 1049.19 4424.25 1051.94 4424.25 1092.16 4424.25 1113.81 4433.88 1124.47 4447.28 1129.97L4427.69 1129.97C4420.12 1130.31 4413.94 1136.5 4413.94 1144.06Z" fill="#009AA6"/></g></g></g><rect x="4482.02" y="880.3" width="135.956" height="29.3998" stroke="#009AA6" stroke-width="4.58333" stroke-miterlimit="8" fill="#009AA6"/></g></svg>