<svg width="474" height="330" xmlns="http://www.w3.org/2000/svg" xmlns:xlink="http://www.w3.org/1999/xlink" xml:space="preserve" overflow="hidden"><defs><clipPath id="clip0"><rect x="3698" y="581" width="474" height="330"/></clipPath><clipPath id="clip1"><rect x="3698" y="580" width="331" height="331"/></clipPath><clipPath id="clip2"><rect x="3698" y="580" width="331" height="331"/></clipPath><clipPath id="clip3"><rect x="3698" y="580" width="331" height="331"/></clipPath><clipPath id="clip4"><rect x="3842" y="580" width="331" height="331"/></clipPath><clipPath id="clip5"><rect x="3842" y="580" width="331" height="331"/></clipPath><clipPath id="clip6"><rect x="3842" y="580" width="331" height="331"/></clipPath></defs><g clip-path="url(#clip0)" transform="translate(-3698 -581)"><g clip-path="url(#clip1)"><g clip-path="url(#clip2)"><g clip-path="url(#clip3)"><path d="M3901.73 750.744C3913.63 756.024 3933.86 754.181 3933.86 754.181 3929.53 748.693 3926.88 742.072 3926.23 735.113 3925.25 718.514 3938.54 691.223 3921.53 663.424L3913.43 663.424C3927.68 691.155 3916.75 725.186 3889.01 739.433 3888.55 739.674 3888.07 739.908 3887.6 740.136 3891.25 744.902 3896.14 748.572 3901.73 750.744Z" fill="#2F5597"/><path d="M3863 738.96C3890.46 738.998 3912.75 716.768 3912.79 689.306 3912.81 680.178 3910.31 671.223 3905.57 663.421L3820.42 663.421C3806.16 686.891 3813.63 717.476 3837.1 731.733 3844.91 736.475 3853.87 738.975 3863 738.96Z" fill="#2F5597"/><path d="M3961.94 785.682C3946.81 773.307 3927.58 765.057 3908.34 759.557 3893.65 755.057 3878.37 752.741 3862.99 752.682 3847.64 752.949 3832.39 755.261 3817.64 759.557 3798.43 765.169 3780.3 774.003 3764.05 785.682 3757.26 790.992 3753.23 799.069 3753.05 807.682L3753.05 862.641 3972.93 862.641 3972.93 807.672C3972.75 799.064 3968.72 790.991 3961.94 785.682Z" fill="#2F5597"/><path d="M3824.43 750.744C3830.01 748.586 3834.88 744.936 3838.51 740.194 3810.36 726.795 3798.4 693.11 3811.8 664.957 3812.04 664.441 3812.3 663.929 3812.56 663.421L3804.65 663.421C3787.63 691.22 3800.92 718.5 3799.94 735.11 3799.28 742.067 3796.64 748.688 3792.31 754.178 3792.31 754.178 3812.54 756.024 3824.43 750.744Z" fill="#2F5597"/><path d="M3805.87 656.546 3802.61 591.23 3832.8 613.185 3863 591.23 3893.19 613.185 3923.38 591.23 3920.12 656.546 3805.87 656.546Z" fill="#2F5597"/></g></g></g><g clip-path="url(#clip4)"><g clip-path="url(#clip5)"><g clip-path="url(#clip6)"><path d="M4117.14 862.724 4117.14 807.755C4116.97 799.142 4112.93 791.064 4106.14 785.755 4091.02 773.38 4071.79 765.13 4052.55 759.63 4037.85 755.128 4022.57 752.812 4007.2 752.755 3991.84 753.02 3976.59 755.332 3961.85 759.63 3942.63 765.239 3924.51 774.073 3908.25 785.755 3901.47 791.064 3897.43 799.142 3897.25 807.755L3897.25 862.724Z" fill="#2F5597"/><path d="M3956.25 663.5C3944.86 691.641 3958.44 723.687 3986.58 735.076 4014.72 746.466 4046.77 732.886 4058.16 704.745 4063.51 691.518 4063.51 676.727 4058.16 663.5Z" fill="#2F5597"/><path d="M3949.8 656.628 3946.54 591.312 3976.73 613.271 4006.93 591.312 4037.12 613.271 4067.31 591.312 4064.06 656.628 3949.8 656.628Z" fill="#2F5597"/></g></g></g></g></svg>